<svg width="32" height="32" viewBox="0 0 32 32" fill="currentColor" xmlns="http://www.w3.org/2000/svg">
<g id="Iconly/Bulk/Time Circle">
<g id="filter 1">
<g id="Ikon">
<path id="Vector" d="M30 21C29.9909 22.436 29.6396 23.8491 28.9751 25.1222C28.3107 26.3953 27.3523 27.4916 26.1795 28.3202C25.0066 29.1488 23.6531 29.6858 22.2312 29.8868C20.8093 30.0877 19.36 29.9467 18.0035 29.4755C19.3536 28.3637 20.4175 26.9445 21.1062 25.3368C21.7948 23.7292 22.088 21.9799 21.9613 20.2355C24.2142 18.7733 25.8577 16.541 26.585 13.9555C27.649 14.7958 28.509 15.8661 29.1004 17.0861C29.6918 18.3061 29.9994 19.6442 30 21Z" fill="currentColor"/>
<path id="Vector_2" d="M19.9878 21.2405C19.9492 22.7538 19.5292 24.2329 18.7669 25.5408C18.0046 26.8487 16.9245 27.943 15.6268 28.7224C14.329 29.5018 12.8555 29.9411 11.3429 29.9996C9.83017 30.0581 8.32718 29.7339 6.97313 29.057C5.61907 28.3801 4.45774 27.3724 3.59671 26.1273C2.73568 24.8822 2.2028 23.4399 2.04743 21.9341C1.89206 20.4283 2.11923 18.9076 2.70789 17.5129C3.29656 16.1183 4.22768 14.8947 5.415 13.9556C5.83621 15.4285 6.55904 16.7978 7.53761 17.9765C8.51618 19.1553 9.72911 20.1177 11.0994 20.8027C12.4697 21.4877 13.9675 21.8804 15.4976 21.9557C17.0277 22.0311 18.5568 21.7875 19.9878 21.2405Z" fill="currentColor"/>
<path id="Vector_3" d="M6.99998 11C6.99998 9.21997 7.52783 7.47991 8.51676 5.99987C9.50569 4.51983 10.9113 3.36628 12.5558 2.68509C14.2004 2.0039 16.01 1.82567 17.7558 2.17294C19.5016 2.5202 21.1053 3.37737 22.3639 4.63604C23.6226 5.89471 24.4798 7.49836 24.8271 9.24419C25.1743 10.99 24.9961 12.7996 24.3149 14.4442C23.6337 16.0887 22.4802 17.4943 21.0001 18.4832C19.5201 19.4722 17.78 20 16 20C13.6138 19.9974 11.3262 19.0483 9.63895 17.361C7.95169 15.6738 7.00263 13.3861 6.99998 11Z" fill="currentColor"/>
</g>
</g>
</g>
</svg>
